# xmcd
#
# Track frame offsets: 
#        150
#        11920
#        25365
#        39971
#        52414
#        65714
#        77578
#        89241
#        103222
#        117148
#        129029
#        139122
#        155875
#
# Disc length: 2213 seconds
#
# Revision: 0
# Processed by: cddbd v1.5.2PL0 Copyright (c) Steve Scherf et al.
# Submitted via: ExactAudioCopyFreeDBPlugin 1.0
#
DISCID=ba08a30d
DTITLE=Po' Ramblin' Boys - Old School
DYEAR=2014
DGENRE=Bluegrass
TTITLE0=Old Brown County Barn
TTITLE1=Sophronie
TTITLE2=Snow White Dove
TTITLE3=Old Old House
TTITLE4=What Kind of Man
TTITLE5=Drink Up and Go Home
TTITLE6=Train 45
TTITLE7=Old Richmond Prison
TTITLE8=I've Lived a Lot in My Time
TTITLE9=When the Savior Reached Down for Me
TTITLE10=Longing for the Ozarks
TTITLE11=Man of the Week
TTITLE12=Tennessee
EXTD=
EXTT0=
EXTT1=
EXTT2=
EXTT3=
EXTT4=
EXTT5=
EXTT6=
EXTT7=
EXTT8=
EXTT9=
EXTT10=
EXTT11=
EXTT12=
PLAYORDER=
